<?xml version="1.0" encoding="UTF-8"?>
<svg xmlns="http://www.w3.org/2000/svg" xmlns:xlink="http://www.w3.org/1999/xlink" width="16px" height="16px" viewBox="0 0 16 16" version="1.1">
<g id="surface1">
<path style="fill-rule:nonzero;fill:rgb(87.058824%,87.058824%,87.058824%);fill-opacity:1;stroke-width:7.12278;stroke-linecap:round;stroke-linejoin:round;stroke:rgb(80%,80%,80%);stroke-opacity:1;stroke-miterlimit:4;" d="M 197.855 0.00895508 C 122.177864 0.00895508 60.530183 61.656636 60.530183 137.333772 C 60.530183 210.245979 185.156807 380.545137 190.379451 387.713472 L 195.397285 394.472187 C 195.909309 395.291426 196.830952 395.701045 197.855 395.701045 C 198.879048 395.701045 199.800691 395.291426 200.312715 394.472187 L 205.330549 387.713472 C 210.553193 380.545137 335.179817 210.245979 335.179817 137.333772 C 335.179817 61.656636 273.532136 0.00895508 197.855 0.00895508 Z M 197.855 88.179475 C 224.992268 88.179475 247.009297 110.196504 247.009297 137.333772 C 247.009297 164.47104 224.992268 186.488069 197.855 186.488069 C 170.717732 186.488069 148.700703 164.47104 148.700703 137.333772 C 148.700703 110.196504 170.717732 88.179475 197.855 88.179475 Z M 197.855 88.179475 " transform="matrix(0.0381452,0,0,0.0381452,0.452783,0.452783)"/>
<path style="fill-rule:nonzero;fill:rgb(87.058824%,87.058824%,87.058824%);fill-opacity:1;stroke-width:0.39571;stroke-linecap:butt;stroke-linejoin:miter;stroke:rgb(87.058824%,87.058824%,87.058824%);stroke-opacity:1;stroke-miterlimit:4;" d="M 197.855 0.00895508 C 122.177864 0.00895508 60.530183 61.656636 60.530183 137.333772 C 60.530183 210.245979 185.156807 380.545137 190.379451 387.713472 L 195.397285 394.472187 C 195.909309 395.291426 196.830952 395.701045 197.855 395.701045 C 198.879048 395.701045 199.800691 395.291426 200.312715 394.472187 L 205.330549 387.713472 C 210.553193 380.545137 335.179817 210.245979 335.179817 137.333772 C 335.179817 61.656636 273.532136 0.00895508 197.855 0.00895508 Z M 197.855 88.179475 C 224.992268 88.179475 247.009297 110.196504 247.009297 137.333772 C 247.009297 164.47104 224.992268 186.488069 197.855 186.488069 C 170.717732 186.488069 148.700703 164.47104 148.700703 137.333772 C 148.700703 110.196504 170.717732 88.179475 197.855 88.179475 Z M 197.855 88.179475 " transform="matrix(0.0381452,0,0,0.0381452,0.452783,0.452783)"/>
</g>
</svg>
